<?xml version="1.0" standalone="no"?>
<!DOCTYPE svg PUBLIC "-//W3C//DTD SVG 20010904//EN"
 "http://www.w3.org/TR/2001/REC-SVG-20010904/DTD/svg10.dtd">
<svg version="1.0" xmlns="http://www.w3.org/2000/svg"
 width="584.000000pt" height="584.000000pt" viewBox="0 0 584.000000 584.000000"
 preserveAspectRatio="xMidYMid meet">
<metadata>
Created by potrace 1.14, written by Peter Selinger 2001-2017
</metadata>
<g transform="translate(0.000000,584.000000) scale(0.100000,-0.100000)"
fill="#000000" stroke="none">
<path d="M720 5816 c-149 -39 -291 -128 -432 -268 -60 -61 -124 -135 -141
-164 -8 -15 -4 -3908 5 -3964 3 -19 9 -62 12 -95 4 -33 10 -68 13 -78 3 -11 6
-29 8 -40 24 -179 122 -449 217 -602 71 -112 184 -243 277 -318 104 -84 256
-165 397 -211 82 -27 102 -32 194 -47 30 -5 69 -12 85 -15 49 -9 395 -12 460
-4 109 14 147 21 240 45 237 60 390 150 580 340 132 133 138 140 226 261 l61
84 24 -36 c13 -19 24 -37 24 -40 0 -17 152 -205 220 -271 100 -98 112 -109
185 -159 97 -67 275 -154 345 -169 8 -2 27 -8 43 -14 15 -6 27 -8 27 -6 0 2
10 1 23 -4 12 -5 43 -12 69 -15 26 -4 69 -10 95 -15 50 -10 381 -7 423 3 14 3
45 9 70 12 67 9 85 12 85 14 0 1 10 3 21 5 55 11 198 62 279 99 89 42 264 154
308 198 13 13 41 39 63 58 54 49 151 163 199 235 22 33 42 62 45 65 11 11 73
136 105 214 33 80 88 274 100 351 3 22 8 56 12 75 3 19 8 937 10 2038 l3 2004
-82 82 c-134 132 -209 192 -348 274 -43 25 -160 73 -160 65 0 -3 -6 -1 -12 5
-21 17 -87 26 -198 26 -115 0 -124 -2 -220 -34 -96 -32 -188 -84 -290 -165
-59 -47 -250 -247 -251 -263 0 -9 0 -798 -1 -1753 0 -955 -4 -1758 -8 -1785
-16 -95 -20 -111 -39 -155 -36 -82 -85 -118 -166 -126 -67 -6 -135 16 -165 54
-18 23 -39 80 -46 123 -12 68 -14 371 -14 1903 l-1 1749 -77 76 c-90 90 -179
166 -198 170 -8 2 -14 8 -14 13 0 5 -7 9 -15 9 -8 0 -15 4 -15 9 0 11 -199
111 -221 111 -8 0 -20 5 -27 12 -7 7 -12 9 -12 5 0 -3 -20 0 -43 7 -58 17
-216 18 -297 1 -192 -41 -367 -145 -564 -335 l-79 -77 -2 -1789 c-1 -984 -5
-1800 -9 -1814 -4 -14 -9 -36 -12 -49 -8 -41 -45 -103 -80 -136 -64 -61 -197
-60 -268 2 -23 20 -32 43 -52 128 -4 17 -8 846 -9 1844 l-2 1814 -96 92 c-181
174 -358 287 -524 336 -106 31 -257 33 -363 5z"/>
</g>
</svg>
