<?xml version="1.0" encoding="UTF-8" standalone="no"?>
<svg
   xmlns:dc="http://purl.org/dc/elements/1.1/"
   xmlns:cc="http://creativecommons.org/ns#"
   xmlns:rdf="http://www.w3.org/1999/02/22-rdf-syntax-ns#"
   xmlns:svg="http://www.w3.org/2000/svg"
   xmlns="http://www.w3.org/2000/svg"
   xmlns:sodipodi="http://sodipodi.sourceforge.net/DTD/sodipodi-0.dtd"
   xmlns:inkscape="http://www.inkscape.org/namespaces/inkscape"
   inkscape:version="1.0 (4035a4fb49, 2020-05-01)"
   sodipodi:docname="d4.svg"
   id="svg8"
   version="1.1"
   viewBox="0 0 13.175921 19.0103"
   height="19.0103mm"
   width="13.175921mm">
  <defs
     id="defs2" />
  <sodipodi:namedview
     inkscape:window-maximized="1"
     inkscape:window-y="-8"
     inkscape:window-x="-8"
     inkscape:window-height="987"
     inkscape:window-width="1680"
     fit-margin-bottom="0"
     fit-margin-right="0"
     fit-margin-left="0"
     fit-margin-top="0"
     showgrid="false"
     inkscape:document-rotation="0"
     inkscape:current-layer="layer1"
     inkscape:document-units="mm"
     inkscape:cy="19.481569"
     inkscape:cx="-2.0531707"
     inkscape:zoom="1.4"
     inkscape:pageshadow="2"
     inkscape:pageopacity="0.0"
     borderopacity="1.0"
     bordercolor="#666666"
     pagecolor="#ffffff"
     id="base" />
  <metadata
     id="metadata5">
    <rdf:RDF>
      <cc:Work
         rdf:about="">
        <dc:format>image/svg+xml</dc:format>
        <dc:type
           rdf:resource="http://purl.org/dc/dcmitype/StillImage" />
        <dc:title></dc:title>
      </cc:Work>
    </rdf:RDF>
  </metadata>
  <g
     transform="translate(-68.196647,-44.356692)"
     id="layer1"
     inkscape:groupmode="layer"
     inkscape:label="Layer 1">
    <path
       d="m 76.647933,45.870683 c 1.382931,-1.53558 2.84344,-2.450534 4.724635,0 v 10.497785 c 0,1.928595 -0.505308,3.499262 -1.515925,4.712003 -0.581105,0.69901 -1.322225,1.254849 -2.223358,1.667518 -0.892712,0.412669 -1.810689,0.619003 -2.753932,0.619003 -1.878063,0 -3.461363,-0.631636 -4.7499,-1.894907 -1.288537,-1.263271 -1.932806,-2.812884 -1.932806,-4.648839 0,-1.777002 0.640058,-3.313982 1.920173,-4.610941 1.280115,-1.296959 2.79604,-1.945438 4.547777,-1.945438 0.27792,0 0.699011,0.02527 1.263272,0.0758 v 5.204679 c -0.387403,-0.303185 -0.774807,-0.454778 -1.16221,-0.454778 -0.488465,0 -0.909556,0.181069 -1.263272,0.543207 -0.345294,0.353716 -0.517941,0.783228 -0.517941,1.288537 0,0.488465 0.181069,0.909555 0.543207,1.263271 0.362137,0.345295 0.79586,0.517942 1.301169,0.517942 1.212741,0 1.819111,-0.83797 1.819111,-2.513911 z"
       style="font-style:normal;font-variant:normal;font-weight:normal;font-stretch:normal;font-size:25.8718px;line-height:1.25;font-family:'Bauhaus 93';-inkscape-font-specification:'Bauhaus 93, ';letter-spacing:0px;word-spacing:0px;fill:#782167;fill-opacity:1;stroke:none;stroke-width:0.264582"
       id="path843"
       sodipodi:nodetypes="ccsccsssssccscscssc" />
  </g>
</svg>
