<?xml version="1.0" encoding="UTF-8" standalone="no"?>
<svg
   xmlns:dc="http://purl.org/dc/elements/1.1/"
   xmlns:cc="http://creativecommons.org/ns#"
   xmlns:rdf="http://www.w3.org/1999/02/22-rdf-syntax-ns#"
   xmlns:svg="http://www.w3.org/2000/svg"
   xmlns="http://www.w3.org/2000/svg"
   xmlns:sodipodi="http://sodipodi.sourceforge.net/DTD/sodipodi-0.dtd"
   xmlns:inkscape="http://www.inkscape.org/namespaces/inkscape"
   sodipodi:docname="w1.svg"
   inkscape:version="1.0 (4035a4fb49, 2020-05-01)"
   id="svg8"
   version="1.1"
   viewBox="0 0 18.254272 19.185875"
   height="19.185875mm"
   width="18.254272mm">
  <defs
     id="defs2" />
  <sodipodi:namedview
     inkscape:window-maximized="1"
     inkscape:window-y="-8"
     inkscape:window-x="-8"
     inkscape:window-height="987"
     inkscape:window-width="1680"
     fit-margin-bottom="0"
     fit-margin-right="0"
     fit-margin-left="0"
     fit-margin-top="0"
     showgrid="false"
     inkscape:document-rotation="0"
     inkscape:current-layer="layer1"
     inkscape:document-units="mm"
     inkscape:cy="19.476718"
     inkscape:cx="160.7119"
     inkscape:zoom="1.4"
     inkscape:pageshadow="2"
     inkscape:pageopacity="0.0"
     borderopacity="1.0"
     bordercolor="#666666"
     pagecolor="#ffffff"
     id="base" />
  <metadata
     id="metadata5">
    <rdf:RDF>
      <cc:Work
         rdf:about="">
        <dc:format>image/svg+xml</dc:format>
        <dc:type
           rdf:resource="http://purl.org/dc/dcmitype/StillImage" />
        <dc:title></dc:title>
      </cc:Work>
    </rdf:RDF>
  </metadata>
  <g
     transform="translate(-25.131723,-44.357975)"
     id="layer1"
     inkscape:groupmode="layer"
     inkscape:label="Layer 1">
    <path
       d="m 43.385995,45.870683 v 12.417958 c 0,1.549613 -0.46741,2.812884 -1.402231,3.789814 -0.934821,0.97693 -2.14335,1.465395 -3.625589,1.465395 -1.785424,0 -3.149757,-0.812705 -4.093,-2.438114 -0.581105,0.875869 -1.204318,1.503294 -1.869641,1.882275 -0.665323,0.370559 -1.48645,0.555839 -2.46338,0.555839 -1.549613,0 -2.737088,-0.488465 -3.562425,-1.465395 -0.825337,-0.97693 -1.238006,-2.383372 -1.238006,-4.219326 V 45.870683 c 1.582033,-2.041508 3.294873,-1.990104 5.128882,0 v 11.21785 c 0,0.555839 0.04211,0.922188 0.126327,1.099046 0.09264,0.176858 0.273709,0.265287 0.543207,0.265287 0.505309,0 0.757963,-0.425301 0.757963,-1.275904 V 45.870683 c 1.843119,-2.002379 3.537556,-1.774523 5.128882,0 v 11.21785 c 0,0.538996 0.04632,0.901134 0.13896,1.086414 0.09264,0.185279 0.273709,0.277919 0.543206,0.277919 0.505309,0 0.757963,-0.454778 0.757963,-1.364333 v -11.21785 c 1.850407,-2.252467 3.529683,-1.766858 5.128882,0 z"
       style="font-style:normal;font-variant:normal;font-weight:normal;font-stretch:normal;font-size:25.8718px;line-height:1.25;font-family:'Bauhaus 93';-inkscape-font-specification:'Bauhaus 93, ';letter-spacing:0px;word-spacing:0px;fill:#782167;fill-opacity:1;stroke:none;stroke-width:0.264582"
       id="path837"
       sodipodi:nodetypes="csssccsssccscssccsssscc" />
  </g>
</svg>
