<?xml version="1.0" encoding="UTF-8" standalone="no"?>
<svg
   xmlns:dc="http://purl.org/dc/elements/1.1/"
   xmlns:cc="http://creativecommons.org/ns#"
   xmlns:rdf="http://www.w3.org/1999/02/22-rdf-syntax-ns#"
   xmlns:svg="http://www.w3.org/2000/svg"
   xmlns="http://www.w3.org/2000/svg"
   xmlns:sodipodi="http://sodipodi.sourceforge.net/DTD/sodipodi-0.dtd"
   xmlns:inkscape="http://www.inkscape.org/namespaces/inkscape"
   inkscape:version="1.0 (4035a4fb49, 2020-05-01)"
   sodipodi:docname="e8.svg"
   id="svg8"
   version="1.1"
   viewBox="0 0 13.12539 13.12539"
   height="13.12539mm"
   width="13.12539mm">
  <defs
     id="defs2" />
  <sodipodi:namedview
     inkscape:window-maximized="1"
     inkscape:window-y="-8"
     inkscape:window-x="-8"
     inkscape:window-height="987"
     inkscape:window-width="1680"
     fit-margin-bottom="0"
     fit-margin-right="0"
     fit-margin-left="0"
     fit-margin-top="0"
     showgrid="false"
     inkscape:document-rotation="0"
     inkscape:current-layer="layer1"
     inkscape:document-units="mm"
     inkscape:cy="-2.7606109"
     inkscape:cx="-168.01723"
     inkscape:zoom="1.4"
     inkscape:pageshadow="2"
     inkscape:pageopacity="0.0"
     borderopacity="1.0"
     bordercolor="#666666"
     pagecolor="#ffffff"
     id="base" />
  <metadata
     id="metadata5">
    <rdf:RDF>
      <cc:Work
         rdf:about="">
        <dc:format>image/svg+xml</dc:format>
        <dc:type
           rdf:resource="http://purl.org/dc/dcmitype/StillImage" />
        <dc:title></dc:title>
      </cc:Work>
    </rdf:RDF>
  </metadata>
  <g
     transform="translate(-112.10797,-50.241602)"
     id="layer1"
     inkscape:groupmode="layer"
     inkscape:label="Layer 1">
    <path
       d="m 125.18283,57.581209 h -7.16275 c -0.10949,-0.362138 -0.16423,-0.6948 -0.16423,-0.997985 0,-0.42109 0.0758,-0.833759 0.22739,-1.238006 h 2.40022 c -0.16844,-0.934821 -0.6948,-1.402231 -1.57909,-1.402231 -0.58953,0 -1.06957,0.252654 -1.44013,0.757963 -0.37056,0.496887 -0.55584,1.136944 -0.55584,1.920173 0,0.816915 0.17686,1.478027 0.53057,1.983336 0.36214,0.505309 0.83376,0.757963 1.41487,0.757963 0.47162,0 0.9264,-0.235811 1.36433,-0.707432 3.14121,-0.52507 3.01022,1.287146 2.69077,3.233975 -1.25485,0.985351 -2.64866,1.478027 -4.18143,1.478027 -1.86964,0 -3.44031,-0.627425 -4.712,-1.882274 -1.27169,-1.25485 -1.90754,-2.808674 -1.90754,-4.661472 0,-1.844376 0.64006,-3.402411 1.92017,-4.674104 1.28853,-1.271693 2.86762,-1.90754 4.73727,-1.90754 1.82753,0 3.3603,0.623214 4.59831,1.869642 1.24643,1.238006 1.86964,2.766564 1.86964,4.585675 0,0.18528 -0.0168,0.480043 -0.0505,0.88429 z"
       style="font-style:normal;font-variant:normal;font-weight:normal;font-stretch:normal;font-size:25.8718px;line-height:1.25;font-family:'Bauhaus 93';-inkscape-font-specification:'Bauhaus 93, ';letter-spacing:0px;word-spacing:0px;fill:#2ca02c;fill-opacity:1;stroke:none;stroke-width:0.264582"
       id="path851"
       sodipodi:nodetypes="ccsccscscsccssscscscc" />
  </g>
</svg>
