<?xml version="1.0" encoding="UTF-8" standalone="no"?>
<svg
   xmlns:dc="http://purl.org/dc/elements/1.1/"
   xmlns:cc="http://creativecommons.org/ns#"
   xmlns:rdf="http://www.w3.org/1999/02/22-rdf-syntax-ns#"
   xmlns:svg="http://www.w3.org/2000/svg"
   xmlns="http://www.w3.org/2000/svg"
   xmlns:sodipodi="http://sodipodi.sourceforge.net/DTD/sodipodi-0.dtd"
   xmlns:inkscape="http://www.inkscape.org/namespaces/inkscape"
   inkscape:version="1.0 (4035a4fb49, 2020-05-01)"
   sodipodi:docname="o2.svg"
   id="svg8"
   version="1.1"
   viewBox="0 0 13.251717 13.112758"
   height="13.112758mm"
   width="13.251718mm">
  <defs
     id="defs2" />
  <sodipodi:namedview
     inkscape:window-maximized="1"
     inkscape:window-y="-8"
     inkscape:window-x="-8"
     inkscape:window-height="987"
     inkscape:window-width="1680"
     fit-margin-bottom="0"
     fit-margin-right="0"
     fit-margin-left="0"
     fit-margin-top="0"
     showgrid="false"
     inkscape:document-rotation="0"
     inkscape:current-layer="layer1"
     inkscape:document-units="mm"
     inkscape:cy="-2.8083551"
     inkscape:cx="84.175549"
     inkscape:zoom="1.4"
     inkscape:pageshadow="2"
     inkscape:pageopacity="0.0"
     borderopacity="1.0"
     bordercolor="#666666"
     pagecolor="#ffffff"
     id="base" />
  <metadata
     id="metadata5">
    <rdf:RDF>
      <cc:Work
         rdf:about="">
        <dc:format>image/svg+xml</dc:format>
        <dc:type
           rdf:resource="http://purl.org/dc/dcmitype/StillImage" />
        <dc:title></dc:title>
      </cc:Work>
    </rdf:RDF>
  </metadata>
  <g
     transform="translate(-45.381965,-50.254234)"
     id="layer1"
     inkscape:groupmode="layer"
     inkscape:label="Layer 1">
    <path
       d="m 52.127835,50.254234 q 2.678135,0 4.585675,1.932806 1.920173,1.920172 1.920173,4.610941 0,2.728666 -1.945438,4.648839 -1.932806,1.920172 -4.674105,1.920172 -2.741299,0 -4.686737,-1.920172 -1.945438,-1.932806 -1.945438,-4.648839 0,-2.766565 1.945438,-4.648839 1.945438,-1.894908 4.800432,-1.894908 z m -0.126328,4.661472 q -0.757962,0 -1.288536,0.55584 -0.530574,0.543206 -0.530574,1.339067 0,0.783229 0.530574,1.339068 0.543206,0.55584 1.288536,0.55584 0.757963,0 1.288537,-0.55584 0.543207,-0.555839 0.543207,-1.339068 0,-0.795861 -0.530574,-1.339067 -0.530574,-0.55584 -1.30117,-0.55584 z"
       style="font-style:normal;font-variant:normal;font-weight:normal;font-stretch:normal;font-size:25.8718px;line-height:1.25;font-family:'Bauhaus 93';-inkscape-font-specification:'Bauhaus 93, ';letter-spacing:0px;word-spacing:0px;fill:#2ad4ff;fill-opacity:1;stroke:none;stroke-width:0.264582"
       id="path839" />
  </g>
</svg>
